# xmcd
#
# Track frame offsets: 
#        150
#        15146
#        35654
#        47577
#        66150
#        76579
#        107598
#        118025
#        129333
#        143859
#        173229
#        186789
#        202315
#        212862
#        241071
#        253775
#        287236
#        300164
#
# Disc length: 4320 seconds
#
# Revision: 2
# Processed by: cddbd v1.5.2PL0 Copyright (c) Steve Scherf et al.
# Submitted via: ExactAudioCopyFreeDBPlugin 1.0
#
DISCID=f610de12
DTITLE=Dyke and the Blazers - We Got More Soul
DYEAR=2007
DGENRE=Rhythm and Blues
TTITLE0=We Got More Soul
TTITLE1=Booga Jivin'
TTITLE2=The Wobble
TTITLE3=Bring it on Back
TTITLE4=Shotgun Slim
TTITLE5=Funky Bull, Parts 1 and 2
TTITLE6=Black Boy
TTITLE7=It's Your Thing
TTITLE8=Let a Woman Be a Woman - Let a Man Be a Man
TTITLE9=Funky Walk, Parts 1 and 2
TTITLE10=Soul Cake
TTITLE11=Stuff
TTITLE12=My Sisters' and My Brothers' Day is Comin'
TTITLE13=Moon
TTITLE14=You Are My Sunshine
TTITLE15=Let's Do it Together
TTITLE16=I'm So All Alone
TTITLE17=Runaway People
EXTD=
EXTT0=
EXTT1=
EXTT2=
EXTT3=
EXTT4=
EXTT5=
EXTT6=
EXTT7=
EXTT8=
EXTT9=
EXTT10=
EXTT11=
EXTT12=
EXTT13=
EXTT14=
EXTT15=
EXTT16=
EXTT17=
PLAYORDER=
